<svg width="27" height="26" viewBox="0 0 27 26" fill="none" xmlns="http://www.w3.org/2000/svg">
<path d="M13.2838 20.5C8.55405 20.5 6 17.0946 6 13.5C6 9.90541 8.55405 6.5 13.2838 6.5C17.8243 6.5 19.527 9.43243 20 11.4189L17.5405 11.7027C17.1622 10.473 16.1216 8.77027 13.2838 8.77027C10.4459 8.77027 8.45946 10.8514 8.45946 13.5C8.45946 16.1486 10.3514 18.2297 13.2838 18.2297C15.6486 18.2297 17.0676 16.9054 17.6351 16.2432L19.7162 17.5676C19.1486 18.2297 17.4459 20.5 13.2838 20.5Z" fill="white"/>
<path d="M26.25 13C26.25 19.436 20.597 24.75 13.5 24.75C6.40297 24.75 0.75 19.436 0.75 13C0.75 6.56396 6.40297 1.25 13.5 1.25C20.597 1.25 26.25 6.56396 26.25 13Z" stroke="white" stroke-width="1.5"/>
</svg>
