<svg width="37" height="44" viewBox="0 0 37 44" fill="none" xmlns="http://www.w3.org/2000/svg">
<path fill-rule="evenodd" clip-rule="evenodd" d="M12.706 2.56892C13.5602 0.412993 16.3748 -0.919981 18.5576 0.757363C22.1939 3.55171 26.7551 7.6599 30.424 12.3589C34.06 17.0156 37 22.4816 37 27.9529C37 32.8441 35.4983 36.479 33.3247 39.0821C31.1716 41.6605 28.4359 43.1372 26.0726 43.8791C24.859 44.26 23.7488 43.6987 23.2096 42.7858C22.7014 41.9255 22.6987 40.7814 23.3339 39.8606C25.1464 37.233 27.0629 33.4541 27.0629 30.0857C27.0629 28.4146 26.3489 26.4363 25.1955 24.4063C24.3282 22.8799 23.2654 21.4159 22.2303 20.1605C22.0154 23.1526 21.3708 26.9122 19.371 30.0209C18.4623 31.4335 16.4421 31.5915 15.3666 30.2194C15.0308 29.791 14.6992 29.3205 14.3957 28.8898C14.3774 28.8639 14.3592 28.8381 14.3411 28.8125C14.1752 28.5772 14.0174 28.3542 13.8647 28.1449C12.4148 29.6017 11.0648 31.3446 11.0648 33.285C11.0648 34.9993 11.9129 37.3428 12.9161 39.3283C13.4587 40.4022 13.2319 41.5926 12.5787 42.3722C11.8842 43.2011 10.6203 43.6273 9.42059 42.9267C5.31022 40.5265 0 35.4 0 27.9529C0 25.9332 0.678885 23.8441 1.62864 21.8035C2.5848 19.7491 3.8814 17.6085 5.2431 15.4701C5.71485 14.7293 6.1936 13.9893 6.67153 13.2505C9.00689 9.64049 11.3226 6.06089 12.706 2.56892ZM16.1707 3.24903C15.9539 3.32471 15.7497 3.50717 15.651 3.75623C14.1386 7.5736 11.6076 11.4812 9.27182 15.0873C8.80746 15.8042 8.35081 16.5092 7.91142 17.1993C6.55987 19.3217 5.3607 21.3125 4.4994 23.1631C3.63169 25.0275 3.17143 26.6171 3.17143 27.9529C3.17143 32.8467 6.14523 36.6467 9.26705 38.9972C8.5173 37.2032 7.89333 35.1342 7.89333 33.285C7.89333 29.5938 10.6406 26.8072 12.1761 25.3406C13.1705 24.3907 14.8875 24.3055 15.8882 25.5514C16.2502 26.002 16.6039 26.502 16.9255 26.9581L16.9637 27.0123C17.0539 27.1403 17.1418 27.2649 17.2278 27.386C18.6419 24.668 19.0378 21.3529 19.1367 18.6243C19.1775 17.5015 19.8674 16.6135 20.7723 16.2422C21.6965 15.8629 22.8447 16.03 23.6346 16.9115L22.4582 17.9841L23.6346 16.9115C25.0435 18.484 26.6667 20.562 27.947 22.8154C29.2102 25.0387 30.2343 27.5965 30.2343 30.0857C30.2343 33.6958 28.6109 37.3589 26.9702 40.0856C28.3488 39.4046 29.7394 38.4099 30.8991 37.021C32.5625 35.0289 33.8286 32.1358 33.8286 27.9529C33.8286 23.5663 31.4236 18.8095 27.9326 14.3385C24.4747 9.9097 20.1271 5.98527 16.6357 3.30234C16.5202 3.21354 16.3709 3.17914 16.1707 3.24903Z" fill="#FFC850"/>
</svg>
