
<svg width="38" height="38" viewBox="0 0 38 38" fill="none" xmlns="http://www.w3.org/2000/svg">
<g filter="url(#filter0_i_854_183)">
<path fill-rule="evenodd" clip-rule="evenodd" d="M11.7834 2.36209C13.602 2.27837 14.1819 2.25977 18.8146 2.25977C23.4473 2.25977 24.0272 2.27992 25.8443 2.36209C27.6614 2.44427 28.9017 2.7342 29.9871 3.15437C31.1235 3.58384 32.1546 4.25518 33.0073 5.12343C33.8755 5.97462 34.5453 7.00411 34.9733 8.14213C35.395 9.22744 35.6834 10.4678 35.7671 12.2818C35.8508 14.1036 35.8694 14.6834 35.8694 19.3146C35.8694 23.9473 35.8493 24.5272 35.7671 26.3458C35.6849 28.1598 35.395 29.4002 34.9733 30.4855C34.5453 31.6237 33.8744 32.6549 33.0073 33.5073C32.1546 34.3756 31.1235 35.0453 29.9871 35.4733C28.9017 35.895 27.6614 36.1834 25.8474 36.2671C24.0272 36.3508 23.4473 36.3694 18.8146 36.3694C14.1819 36.3694 13.602 36.3493 11.7834 36.2671C9.96934 36.1849 8.72899 35.895 7.64368 35.4733C6.50554 35.0453 5.47434 34.3744 4.62188 33.5073C3.75422 32.6556 3.08278 31.6249 2.65437 30.4871C2.2342 29.4017 1.94582 28.1614 1.86209 26.3474C1.77837 24.5256 1.75977 23.9458 1.75977 19.3146C1.75977 14.6819 1.77992 14.102 1.86209 12.2849C1.94427 10.4678 2.2342 9.22744 2.65437 8.14213C3.08341 7.00423 3.75536 5.97355 4.62343 5.12188C5.47468 4.25441 6.50484 3.58298 7.64213 3.15437C8.72744 2.7342 9.96779 2.44582 11.7818 2.36209H11.7834ZM25.7063 5.43196C23.9078 5.34979 23.3682 5.33274 18.8146 5.33274C14.261 5.33274 13.7214 5.34979 11.9229 5.43196C10.2593 5.50793 9.35691 5.78546 8.75534 6.01958C7.95997 6.32967 7.39096 6.69712 6.79404 7.29404C6.2282 7.84453 5.79274 8.51467 5.51958 9.25535C5.28546 9.85692 5.00793 10.7593 4.93196 12.4229C4.84979 14.2214 4.83274 14.761 4.83274 19.3146C4.83274 23.8682 4.84979 24.4078 4.93196 26.2063C5.00793 27.8699 5.28546 28.7723 5.51958 29.3738C5.79246 30.1134 6.22813 30.7847 6.79404 31.3351C7.34445 31.9011 8.01579 32.3367 8.75534 32.6096C9.35691 32.8437 10.2593 33.1213 11.9229 33.1972C13.7214 33.2794 14.2594 33.2964 18.8146 33.2964C23.3698 33.2964 23.9078 33.2794 25.7063 33.1972C27.3699 33.1213 28.2723 32.8437 28.8738 32.6096C29.6692 32.2995 30.2382 31.9321 30.8351 31.3351C31.4011 30.7847 31.8367 30.1134 32.1096 29.3738C32.3437 28.7723 32.6212 27.8699 32.6972 26.2063C32.7794 24.4078 32.7964 23.8682 32.7964 19.3146C32.7964 14.761 32.7794 14.2214 32.6972 12.4229C32.6212 10.7593 32.3437 9.85692 32.1096 9.25535C31.7995 8.45997 31.4321 7.89096 30.8351 7.29404C30.2846 6.72824 29.6145 6.29278 28.8738 6.01958C28.2723 5.78546 27.3699 5.50793 25.7063 5.43196ZM16.6362 24.5721C17.8528 25.0786 19.2074 25.1469 20.4688 24.7655C21.7302 24.3841 22.82 23.5766 23.5521 22.481C24.2843 21.3853 24.6133 20.0695 24.4831 18.7581C24.3528 17.4468 23.7714 16.2214 22.838 15.2912C22.243 14.6966 21.5235 14.2413 20.7314 13.9581C19.9394 13.6748 19.0943 13.5708 18.2572 13.6533C17.4201 13.7359 16.6117 14.0031 15.8902 14.4356C15.1687 14.8681 14.552 15.4552 14.0847 16.1546C13.6173 16.854 13.3108 17.6483 13.1873 18.4804C13.0638 19.3125 13.1263 20.1616 13.3703 20.9666C13.6143 21.7716 14.0338 22.5125 14.5985 23.136C15.1632 23.7594 15.8592 24.2499 16.6362 24.5721ZM12.6159 13.1159C13.43 12.3019 14.3963 11.6562 15.4599 11.2157C16.5235 10.7751 17.6634 10.5484 18.8146 10.5484C19.9658 10.5484 21.1057 10.7751 22.1693 11.2157C23.2328 11.6562 24.1992 12.3019 25.0132 13.1159C25.8273 13.93 26.473 14.8963 26.9135 15.9599C27.3541 17.0235 27.5808 18.1634 27.5808 19.3146C27.5808 20.4658 27.3541 21.6057 26.9135 22.6693C26.473 23.7328 25.8273 24.6992 25.0132 25.5132C23.3693 27.1572 21.1395 28.0808 18.8146 28.0808C16.4896 28.0808 14.2599 27.1572 12.6159 25.5132C10.972 23.8693 10.0484 21.6395 10.0484 19.3146C10.0484 16.9896 10.972 14.7599 12.6159 13.1159ZM29.525 11.8539C29.7267 11.6636 29.8882 11.4348 29.9999 11.181C30.1116 10.9271 30.1713 10.6535 30.1753 10.3762C30.1793 10.0989 30.1277 9.82365 30.0235 9.56669C29.9192 9.30972 29.7645 9.07629 29.5684 8.8802C29.3723 8.68411 29.1389 8.52936 28.8819 8.42511C28.6249 8.32086 28.3496 8.26923 28.0724 8.27327C27.7951 8.27731 27.5214 8.33695 27.2676 8.44865C27.0138 8.56034 26.785 8.72183 26.5947 8.92355C26.2246 9.31586 26.022 9.83695 26.0299 10.3762C26.0377 10.9155 26.2554 11.4304 26.6368 11.8118C27.0181 12.1931 27.5331 12.4108 28.0724 12.4187C28.6116 12.4266 29.1327 12.224 29.525 11.8539Z" fill="#FE4B92"/>
</g>
<defs>
<filter id="filter0_i_854_183" x="0.208984" y="0.708984" width="37.2109" height="41.2109" filterUnits="userSpaceOnUse" color-interpolation-filters="sRGB">
<feFlood flood-opacity="0" result="BackgroundImageFix"/>
<feBlend mode="normal" in="SourceGraphic" in2="BackgroundImageFix" result="shape"/>
<feColorMatrix in="SourceAlpha" type="matrix" values="0 0 0 0 0 0 0 0 0 0 0 0 0 0 0 0 0 0 127 0" result="hardAlpha"/>
<feOffset dy="4"/>
<feGaussianBlur stdDeviation="7.5"/>
<feComposite in2="hardAlpha" operator="arithmetic" k2="-1" k3="1"/>
<feColorMatrix type="matrix" values="0 0 0 0 0 0 0 0 0 0 0 0 0 0 0 0 0 0 0.2 0"/>
<feBlend mode="normal" in2="shape" result="effect1_innerShadow_854_183"/>
</filter>
</defs>
</svg>
