<svg width="241" height="75" viewBox="0 0 241 75" fill="none" xmlns="http://www.w3.org/2000/svg">
<g clip-path="url(#clip0_854_168)">
<path d="M109.22 -0.000384176C127.545 -0.000384176 145.876 -0.000384176 164.201 -0.000384176C164.458 0.0282724 164.715 0.0798542 164.967 0.0913169C166.293 0.131436 167.614 0.125705 168.941 0.194481C170.547 0.274719 172.148 0.389345 173.749 0.532628C175.499 0.693105 177.248 0.876507 178.992 1.10003C180.948 1.35794 182.892 1.70182 184.824 2.10874C188.158 2.81942 191.434 3.73643 194.613 4.98013C197.964 6.2926 201.137 7.92603 204.042 10.0638C207.667 12.7289 210.611 15.9957 212.71 19.9904C214.836 24.0425 215.9 28.3811 216.152 32.926C216.249 34.6626 216.232 36.4049 216.237 38.1415C216.237 39.5342 216.192 40.9212 216.066 42.3082C215.894 44.2167 215.591 46.1023 215.122 47.9593C213.67 53.7422 210.783 58.6768 206.369 62.7002C203.847 64.9985 201.011 66.8382 197.958 68.3456C193.944 70.3229 189.719 71.6697 185.362 72.6383C182.057 73.3777 178.712 73.9107 175.339 74.2202C173.372 74.4036 171.405 74.587 169.432 74.6844C167.305 74.7933 165.178 74.8449 163.052 74.8449C145.441 74.8563 127.831 74.8506 110.22 74.8506C110.026 74.8506 109.831 74.8563 109.631 74.8506C109.511 74.8449 109.391 74.8105 109.237 74.7818V73.8419C109.237 49.6672 109.237 25.4868 109.237 1.31209C109.237 1.04845 109.237 0.790537 109.231 0.526897C109.231 0.45239 109.191 0.377883 109.157 0.274719C108.894 0.418002 108.774 0.624329 108.619 0.802C106.218 3.61035 103.822 6.41869 101.426 9.23277C90.8945 21.5838 80.3568 33.929 69.8248 46.28C69.0529 47.1855 69.1959 46.7901 69.1959 47.9535C69.1959 56.6078 69.1959 65.2621 69.1959 73.9107C69.1959 74.1285 69.2016 74.3463 69.1959 74.564C69.1902 74.6844 69.1559 74.8105 69.1273 74.9652C68.8414 74.971 68.5841 74.9824 68.3268 74.9824C59.4015 74.9824 50.4762 74.9824 41.5509 74.9824C41.3965 74.9824 41.2479 74.9939 41.0935 74.9767C40.9734 74.9652 40.8534 74.9194 40.7047 74.885V74.0138C40.7047 65.1647 40.7047 56.3155 40.7047 47.4664C40.7047 46.6468 40.7504 46.8646 40.2816 46.3029C40.253 46.2685 40.2244 46.2399 40.1958 46.2055C28.0858 32.393 15.97 18.5691 3.86001 4.73941C2.65358 3.36963 1.45287 1.99411 0.252158 0.618598C0.14924 0.49824 -0.0108548 0.395077 0.000580534 0.171555H33.9636C34.0779 0.297644 34.1923 0.423733 34.3066 0.555553C39.0866 6.21809 43.8609 11.8864 48.6351 17.5489C50.8479 20.1738 53.0606 22.7988 55.2791 25.418C55.4277 25.5957 55.5535 25.802 55.7879 25.9281C56.3025 25.4524 56.697 24.9136 57.143 24.4093C57.5718 23.9221 57.995 23.4235 58.4181 22.9249C58.8583 22.4148 59.2929 21.9047 59.7331 21.3889C60.1734 20.8788 60.6136 20.3687 61.0482 19.8586C61.4884 19.3485 61.923 18.8385 62.3633 18.3226C62.7864 17.8297 63.2152 17.3311 63.6383 16.8382C64.0786 16.3281 64.5188 15.818 64.9534 15.308C65.3936 14.7979 65.8282 14.2878 66.2684 13.772C66.6915 13.2791 67.1204 12.7862 67.5435 12.2876C67.9837 11.7775 68.424 11.2674 68.8585 10.7516C69.2988 10.2415 69.7333 9.73139 70.1736 9.21557C70.5967 8.72268 71.0255 8.22979 71.4486 7.73116C71.8889 7.22107 72.3234 6.71099 72.7637 6.19517C73.204 5.68508 73.6442 5.17499 74.0788 4.66491C74.519 4.15482 74.9593 3.64473 75.3938 3.13465C75.8169 2.64175 76.2401 2.14313 76.6689 1.65023C77.1091 1.14015 77.5494 0.635792 77.9839 0.131436H78.8645C88.6989 0.131436 98.539 0.131436 108.373 0.131436C108.614 0.131436 108.848 0.131436 109.088 0.108511C109.128 0.108511 109.168 0.0282724 109.208 -0.0175781L109.22 -0.000384176ZM137.814 55.0604C138.077 55.0661 138.317 55.0776 138.551 55.0776C145.567 55.0776 152.577 55.0776 159.592 55.0776C162.548 55.0776 165.493 54.877 168.415 54.4414C170.416 54.1434 172.383 53.725 174.31 53.1117C176.494 52.4182 178.564 51.4898 180.445 50.1658C183.927 47.7128 185.928 44.36 186.471 40.1475C186.746 37.981 186.728 35.8089 186.357 33.6482C185.979 31.476 185.167 29.4758 183.835 27.7048C182.577 26.0255 180.994 24.7245 179.192 23.6757C177.323 22.5867 175.322 21.8245 173.24 21.2571C171.125 20.6782 168.969 20.2999 166.785 20.0478C165.276 19.8758 163.76 19.7555 162.24 19.6981C161.027 19.6523 159.81 19.6466 158.592 19.6466C151.971 19.6466 145.344 19.6466 138.723 19.6466C138.528 19.6466 138.334 19.6408 138.14 19.6523C138.02 19.6638 137.899 19.7096 137.797 19.7325C137.716 20.3687 137.722 54.4299 137.808 55.0661L137.814 55.0604Z" fill="#FBC54E"/>
<path d="M240.995 15.3313C241.155 20.117 237.719 23.6647 234.368 24.8396C228.57 26.8685 222.298 23.4125 221.08 17.3144C219.943 11.6002 223.665 6.44779 228.999 5.41042C234.791 4.28135 239.851 8.1328 240.858 13.3827C240.978 14.0189 240.949 14.678 240.995 15.3313ZM222.418 15.3141C222.378 19.8361 226.043 23.8939 230.989 23.8825C235.706 23.8767 239.52 20.0711 239.52 15.3313C239.52 10.4081 235.5 6.74009 230.943 6.75728C226.215 6.77448 222.395 10.6603 222.418 15.3141Z" fill="#FFC52E"/>
<path d="M236.003 13.1188C235.139 13.1475 234.362 13.136 233.561 13.1303C233.481 12.9641 233.401 12.8093 233.332 12.6546C233.012 11.9496 232.463 11.5083 231.714 11.3765C230.262 11.1186 229.079 11.5599 228.45 13.073C228.032 14.0759 227.964 15.1362 228.084 16.2137C228.124 16.5805 228.198 16.9473 228.301 17.2969C228.392 17.6064 228.518 17.9159 228.678 18.191C229.279 19.2284 230.211 19.6124 231.371 19.5207C232.292 19.4462 232.955 18.9762 233.344 18.1337C233.395 18.0191 233.458 17.9045 233.527 17.7555C234.333 17.7153 235.128 17.7383 235.968 17.744C235.945 17.9389 235.957 18.0879 235.917 18.2197C235.431 19.7328 234.442 20.7644 232.927 21.2344C231.629 21.6356 230.314 21.6356 229.016 21.2401C227.798 20.8676 226.877 20.111 226.254 19.0049C225.997 18.5464 225.802 18.0649 225.682 17.5549C225.311 15.9959 225.316 14.4485 225.854 12.9354C226.494 11.13 227.723 9.9322 229.616 9.49089C230.851 9.20433 232.08 9.25591 233.27 9.69722C234.619 10.1958 235.505 11.153 235.917 12.54C235.963 12.7004 235.974 12.8724 236.014 13.1303L236.003 13.1188Z" fill="#FFC52E"/>
</g>
<defs>
<clipPath id="clip0_854_168">
<rect width="241" height="75" fill="white"/>
</clipPath>
</defs>
</svg>
