<svg width="43" height="42" viewBox="0 0 43 42" fill="none" xmlns="http://www.w3.org/2000/svg">
<path fill-rule="evenodd" clip-rule="evenodd" d="M6.55667 3.90627C5.06809 3.90627 3.86135 5.11301 3.86135 6.6016V27.1712C3.86135 28.6598 5.06809 29.8665 6.55667 29.8665H36.7443C38.2329 29.8665 39.4397 28.6598 39.4397 27.1712V6.60159C39.4397 5.11301 38.2329 3.90627 36.7443 3.90627H6.55667ZM0.626953 6.6016C0.626953 3.32671 3.28178 0.671875 6.55667 0.671875H36.7443C40.0192 0.671875 42.6741 3.3267 42.6741 6.60159V27.1712C42.6741 30.4461 40.0192 33.1009 36.7443 33.1009H6.55667C3.28178 33.1009 0.626953 30.4461 0.626953 27.1712V6.6016Z" fill="#DE98FF"/>
<path fill-rule="evenodd" clip-rule="evenodd" d="M40.6526 25.7383H2.24414V22.5039H40.6526V25.7383Z" fill="#DE98FF"/>
<path fill-rule="evenodd" clip-rule="evenodd" d="M20.0332 39.3352V32.2783H23.2676V39.3352H20.0332Z" fill="#DE98FF"/>
<path fill-rule="evenodd" clip-rule="evenodd" d="M26.7032 42.002H16.5957V38.7676H26.7032V42.002Z" fill="#DE98FF"/>
</svg>
