<svg width="33" height="28" viewBox="0 0 33 28" fill="none" xmlns="http://www.w3.org/2000/svg">
<path d="M2.2497 11.7457C11.0343 7.91836 16.8921 5.39515 19.8231 4.17607C28.1915 0.695326 29.9304 0.0906846 31.0638 0.0705061C31.3131 0.0663277 31.8705 0.128106 32.2315 0.421065C32.5364 0.668433 32.6203 1.00259 32.6604 1.23713C32.7005 1.47166 32.7505 2.00593 32.7108 2.42339C32.2573 7.18826 30.295 18.7513 29.2968 24.0881C28.8743 26.3462 28.0426 27.1034 27.2374 27.1775C25.4875 27.3385 24.1586 26.021 22.4638 24.91C19.8116 23.1715 18.3133 22.0892 15.7389 20.3927C12.7637 18.4322 14.6924 17.3546 16.3879 15.5936C16.8317 15.1327 24.5419 8.11964 24.6911 7.48345C24.7098 7.40388 24.7271 7.10729 24.5509 6.95068C24.3747 6.79407 24.1147 6.84763 23.927 6.89022C23.661 6.9506 19.4241 9.75101 11.2164 15.2915C10.0138 16.1173 8.92446 16.5196 7.94849 16.4986C6.87256 16.4753 4.80289 15.8902 3.26431 15.3901C1.37718 14.7766 -0.122676 14.4523 0.00792801 13.4105C0.0759545 12.8679 0.82321 12.3129 2.2497 11.7457Z" fill="#FE4B92"/>
</svg>
