<svg width="34" height="35" viewBox="0 0 34 35" fill="none" xmlns="http://www.w3.org/2000/svg">
<g filter="url(#filter0_i_854_188)">
<path fill-rule="evenodd" clip-rule="evenodd" d="M24.6781 20.6379C24.2629 20.4303 22.2273 19.4299 21.8484 19.2906C21.4694 19.1527 21.1935 19.0844 20.9163 19.4996C20.6404 19.912 19.8476 20.8455 19.6066 21.1214C19.3641 21.3986 19.1231 21.4321 18.7093 21.2259C18.2955 21.0169 16.9607 20.5808 15.3793 19.1708C14.1491 18.0729 13.3173 16.7172 13.0762 16.302C12.8352 15.8882 13.0498 15.6639 13.2574 15.4577C13.4441 15.2724 13.6712 14.9742 13.8788 14.7332C14.0864 14.4907 14.1546 14.318 14.2926 14.0407C14.4319 13.7648 14.3622 13.5238 14.2578 13.3162C14.1546 13.1086 13.327 11.0702 12.9815 10.2412C12.6457 9.43449 12.3044 9.54456 12.0508 9.53063C11.8084 9.51948 11.5325 9.5167 11.2566 9.5167C10.9807 9.5167 10.5321 9.6198 10.1531 10.035C9.77276 10.4488 8.70411 11.4506 8.70411 13.489C8.70411 15.5259 10.1866 17.4947 10.3942 17.7719C10.6018 18.0478 13.3131 22.2304 17.4665 24.0236C18.4557 24.4499 19.2262 24.7049 19.8267 24.8944C20.8187 25.2107 21.7216 25.1661 22.4349 25.0588C23.2291 24.9404 24.8843 24.057 25.2299 23.0901C25.574 22.1231 25.574 21.2941 25.4709 21.1214C25.3678 20.9486 25.0919 20.8455 24.6767 20.6379H24.6781ZM17.1237 30.9524H17.1182C14.6513 30.9529 12.2296 30.2897 10.1072 29.0325L9.60557 28.7343L4.39189 30.1025L5.78379 25.0198L5.45636 24.4987C4.0772 22.3034 3.34734 19.7626 3.35111 17.17C3.3539 9.57661 9.53173 3.39878 17.1293 3.39878C20.8076 3.39878 24.2657 4.83386 26.8656 7.43652C28.1479 8.71358 29.1643 10.2322 29.856 11.9046C30.5476 13.5771 30.9008 15.37 30.895 17.1798C30.8922 24.7732 24.7144 30.9524 17.1237 30.9524ZM28.8441 5.45945C27.3089 3.91419 25.4824 2.68895 23.4703 1.85474C21.4582 1.02053 19.3005 0.59393 17.1223 0.599666C7.99075 0.599666 0.556178 8.03285 0.553391 17.1686C0.551998 20.089 1.31413 22.9396 2.76454 25.4517L0.414062 34.0385L9.19734 31.734C11.6271 33.0578 14.3498 33.7515 17.1168 33.7515H17.1237C26.2553 33.7515 33.6899 26.3183 33.6927 17.1812C33.6994 15.0038 33.2744 12.8468 32.4421 10.8348C31.6099 8.82279 30.3869 6.99578 28.8441 5.45945Z" fill="#FE4B92"/>
</g>
<defs>
<filter id="filter0_i_854_188" x="0.414062" y="0.599609" width="33.2793" height="37.4395" filterUnits="userSpaceOnUse" color-interpolation-filters="sRGB">
<feFlood flood-opacity="0" result="BackgroundImageFix"/>
<feBlend mode="normal" in="SourceGraphic" in2="BackgroundImageFix" result="shape"/>
<feColorMatrix in="SourceAlpha" type="matrix" values="0 0 0 0 0 0 0 0 0 0 0 0 0 0 0 0 0 0 127 0" result="hardAlpha"/>
<feOffset dy="4"/>
<feGaussianBlur stdDeviation="7.5"/>
<feComposite in2="hardAlpha" operator="arithmetic" k2="-1" k3="1"/>
<feColorMatrix type="matrix" values="0 0 0 0 0 0 0 0 0 0 0 0 0 0 0 0 0 0 0.2 0"/>
<feBlend mode="normal" in2="shape" result="effect1_innerShadow_854_188"/>
</filter>
</defs>
</svg>
