<svg width="39" height="26" viewBox="0 0 39 26" fill="none" xmlns="http://www.w3.org/2000/svg">
<path d="M37.3816 4.16612C37.1709 3.41452 36.7605 2.73405 36.1939 2.19707C35.6114 1.64356 34.8975 1.24763 34.1195 1.04664C31.2077 0.279173 19.5422 0.279173 19.5422 0.279173C14.679 0.223842 9.81699 0.467202 4.98361 1.00788C4.20559 1.22372 3.49296 1.6285 2.90912 2.18621C2.33546 2.73817 1.91994 3.41881 1.70288 4.16457C1.18146 6.97357 0.928117 9.82576 0.946269 12.6827C0.927664 15.537 1.18039 18.3883 1.70288 21.2008C1.91529 21.9435 2.32926 22.621 2.90447 23.1683C3.47969 23.7156 4.19599 24.111 4.98361 24.3203C7.9341 25.0862 19.5422 25.0862 19.5422 25.0862C24.4116 25.1416 29.2799 24.8982 34.1195 24.3575C34.8975 24.1565 35.6114 23.7606 36.1939 23.2071C36.7676 22.6598 37.1754 21.9791 37.38 21.238C37.9151 18.4301 38.1752 15.5767 38.1568 12.7183C38.197 9.84787 37.9372 6.98104 37.3816 4.16457V4.16612ZM15.8336 17.9914V7.37553L25.5393 12.6842L15.8336 17.9914Z" fill="#FE4B92"/>
</svg>
